<svg width="107" height="107" viewBox="0 0 107 107" fill="none" xmlns="http://www.w3.org/2000/svg">
<path d="M71.1549 53.5033L104.257 20.4015C107.914 16.7441 107.914 10.8145 104.257 7.16281L99.8439 2.74991C96.1852 -0.908637 90.2557 -0.908637 86.6041 2.74991L53.5033 35.8506L20.4015 2.74305C16.7441 -0.914351 10.8145 -0.914351 7.16281 2.74305L2.74305 7.15595C-0.914351 10.8145 -0.914351 16.7441 2.74305 20.3957L35.8506 53.5033L2.74991 86.6041C-0.908637 90.2626 -0.908637 96.1921 2.74991 99.8439L7.16281 104.257C10.8202 107.914 16.7498 107.914 20.4015 104.257L53.5033 71.1549L86.6041 104.257C90.2626 107.914 96.1921 107.914 99.8439 104.257L104.257 99.8439C107.914 96.1852 107.914 90.2557 104.257 86.6041L71.1549 53.5033Z" fill="#EF6464"/>
</svg>
