<svg width="98" height="98" viewBox="0 0 98 98" fill="none" xmlns="http://www.w3.org/2000/svg">
<path d="M65.1699 49.003L95.4875 18.6855C98.8373 15.3357 98.8373 9.90487 95.4875 6.56033L91.4458 2.51861C88.0949 -0.83221 82.6641 -0.83221 79.3196 2.51861L49.003 32.8351L18.6855 2.51233C15.3357 -0.837444 9.90487 -0.837444 6.56033 2.51233L2.51233 6.55405C-0.837444 9.90487 -0.837444 15.3357 2.51233 18.6802L32.8351 49.003L2.51861 79.3196C-0.83221 82.6704 -0.83221 88.1012 2.51861 91.4458L6.56033 95.4875C9.91011 98.8373 15.3409 98.8373 18.6855 95.4875L49.003 65.1699L79.3196 95.4875C82.6704 98.8373 88.1012 98.8373 91.4458 95.4875L95.4875 91.4458C98.8373 88.0949 98.8373 82.6641 95.4875 79.3196L65.1699 49.003Z" fill="white"/>
</svg>
