<svg width="30" height="30" viewBox="0 0 30 30" fill="none" xmlns="http://www.w3.org/2000/svg">
<path d="M28.0067 2.25887e-06H1.26086C0.78884 -0.000890036 0.356377 0.262633 0.14074 0.682307C-0.0778714 1.10763 -0.0395029 1.61981 0.239784 2.00825L10.0383 15.8117C10.0416 15.8164 10.0452 15.8209 10.0484 15.8257C10.4045 16.3063 10.5972 16.8887 10.5981 17.4868V28.7407C10.596 29.0738 10.7269 29.3941 10.9615 29.6306C11.1965 29.8668 11.516 30 11.8491 30C12.0183 29.9997 12.1861 29.9661 12.3425 29.901L17.8485 27.8017C18.3417 27.6509 18.6692 27.1854 18.6692 26.6251V17.4868C18.67 16.8887 18.8628 16.3063 19.2185 15.8257C19.2218 15.8209 19.2253 15.8164 19.2286 15.8117L29.0275 2.00795C29.3067 1.61981 29.3451 1.10793 29.1265 0.682605C28.9112 0.262633 28.4784 -0.000890036 28.0067 2.25887e-06V2.25887e-06Z" fill="#7E8487"/>
</svg>
