<svg width="27" height="27" viewBox="0 0 27 27" fill="none" xmlns="http://www.w3.org/2000/svg">
<g clip-path="url(#clip0)">
<path d="M26.1374 24.5927L19.7113 17.9093C21.3636 15.9452 22.2689 13.4739 22.2689 10.9012C22.2689 4.89039 17.3785 0 11.3676 0C5.35676 0 0.46637 4.89039 0.46637 10.9012C0.46637 16.9121 5.35676 21.8025 11.3676 21.8025C13.6242 21.8025 15.7746 21.1219 17.6131 19.8298L24.0879 26.564C24.3586 26.845 24.7226 27 25.1127 27C25.4819 27 25.8321 26.8592 26.098 26.6033C26.663 26.0597 26.681 25.1582 26.1374 24.5927ZM11.3676 2.8438C15.8106 2.8438 19.425 6.45827 19.425 10.9012C19.425 15.3442 15.8106 18.9587 11.3676 18.9587C6.92464 18.9587 3.31017 15.3442 3.31017 10.9012C3.31017 6.45827 6.92464 2.8438 11.3676 2.8438Z" fill="#7E8487"/>
</g>
<defs>
<clipPath id="clip0">
<rect width="27" height="27" fill="white"/>
</clipPath>
</defs>
</svg>
