<svg width="17" height="17" viewBox="0 0 17 17" fill="none" xmlns="http://www.w3.org/2000/svg">
<g clip-path="url(#clip0)">
<path d="M16.3015 3.54627H3.00961L2.81203 1.34517C2.77971 0.985219 2.47804 0.709412 2.11666 0.709412H0.698162C0.312577 0.709412 0 1.02199 0 1.40757C0 1.79316 0.312577 2.10573 0.698162 2.10573H1.47837C1.90475 6.85596 0.802786 -5.42161 2.28136 11.0518C2.33834 11.6966 2.68672 12.3962 3.28688 12.8717C2.20483 14.2535 3.19349 16.2906 4.95362 16.2906C6.41451 16.2906 7.4449 14.8336 6.94391 13.4536H10.7651C10.2647 14.8318 11.2929 16.2906 12.7553 16.2906C13.9225 16.2906 14.872 15.3411 14.872 14.174C14.872 13.0068 13.9225 12.0573 12.7553 12.0573H4.95834C4.42801 12.0573 3.96586 11.7373 3.76638 11.2712L14.9239 10.6154C15.2285 10.5975 15.4863 10.3838 15.5603 10.0878L16.9789 4.41376C17.0889 3.97378 16.7558 3.54627 16.3015 3.54627ZM4.95362 14.8943C4.55647 14.8943 4.23332 14.5711 4.23332 14.174C4.23332 13.7768 4.55647 13.4536 4.95362 13.4536C5.35081 13.4536 5.67396 13.7768 5.67396 14.174C5.67396 14.5711 5.35081 14.8943 4.95362 14.8943ZM12.7553 14.8943C12.3581 14.8943 12.035 14.5711 12.035 14.174C12.035 13.7768 12.3581 13.4536 12.7553 13.4536C13.1525 13.4536 13.4756 13.7768 13.4756 14.174C13.4756 14.5711 13.1525 14.8943 12.7553 14.8943ZM14.33 9.25162L3.57844 9.88345L3.13494 4.94256H15.4074L14.33 9.25162Z" fill="#96EDBE"/>
</g>
<defs>
<clipPath id="clip0">
<rect width="17" height="17" fill="white"/>
</clipPath>
</defs>
</svg>
